<svg width="16" height="16" viewBox="0 0 16 16" fill="none" xmlns="http://www.w3.org/2000/svg">
<g clip-path="url(#clip0_334_24)">
<path d="M8 16C10.1217 16 12.1566 15.1571 13.6569 13.6569C15.1571 12.1566 16 10.1217 16 8C16 5.87827 15.1571 3.84344 13.6569 2.34315C12.1566 0.842855 10.1217 0 8 0C5.87827 0 3.84344 0.842855 2.34315 2.34315C0.842855 3.84344 0 5.87827 0 8C0 10.1217 0.842855 12.1566 2.34315 13.6569C3.84344 15.1571 5.87827 16 8 16Z" fill="white"/>
<g clip-path="url(#clip1_334_24)">
<path d="M12.8112 5.11741C13.0623 5.36853 13.0623 5.77634 12.8112 6.02746L7.66835 11.1703C7.41723 11.4214 7.00942 11.4214 6.7583 11.1703L4.18687 8.59889C3.93576 8.34777 3.93576 7.93996 4.18687 7.68884C4.43799 7.43773 4.8458 7.43773 5.09692 7.68884L7.21433 9.80424L11.9032 5.11741C12.1543 4.8663 12.5621 4.8663 12.8132 5.11741H12.8112Z" fill="#FC7114"/>
</g>
</g>
<defs>
<clipPath id="clip0_334_24">
<rect width="16" height="16" fill="white"/>
</clipPath>
<clipPath id="clip1_334_24">
<rect width="9" height="10.2857" fill="white" transform="translate(4 3)"/>
</clipPath>
</defs>
</svg>
