<svg width="45" height="60" viewBox="0 0 45 60" fill="none" xmlns="http://www.w3.org/2000/svg">
<path d="M40.1484 17.6484C41.6133 16.1836 41.6133 13.8047 40.1484 12.3398C38.6836 10.875 36.3047 10.875 34.8398 12.3398L22.5 24.6914L10.1484 12.3516C8.68359 10.8867 6.30469 10.8867 4.83984 12.3516C3.375 13.8164 3.375 16.1953 4.83984 17.6602L17.1914 30L4.85156 42.3516C3.38672 43.8164 3.38672 46.1953 4.85156 47.6602C6.31641 49.125 8.69531 49.125 10.1602 47.6602L22.5 35.3086L34.8516 47.6484C36.3164 49.1133 38.6953 49.1133 40.1602 47.6484C41.625 46.1836 41.625 43.8047 40.1602 42.3398L27.8086 30L40.1484 17.6484Z" fill="black"/>
</svg>
