<svg width="65" height="65" viewBox="0 0 65 65" fill="none" xmlns="http://www.w3.org/2000/svg">
<rect width="65" height="65" rx="10" fill="#FC7114"/>
<path d="M14.2188 16C11.8896 16 10 17.8896 10 20.2188C10 21.5459 10.624 22.7939 11.6875 23.5937L30.8125 37.9375C31.8145 38.6846 33.1855 38.6846 34.1875 37.9375L53.3125 23.5937C54.376 22.7939 55 21.5459 55 20.2188C55 17.8896 53.1104 16 50.7812 16H14.2188ZM10 25.8438V44.125C10 47.2275 12.5225 49.75 15.625 49.75H49.375C52.4775 49.75 55 47.2275 55 44.125V25.8438L35.875 40.1875C33.8711 41.6904 31.1289 41.6904 29.125 40.1875L10 25.8438Z" fill="white"/>
</svg>
