<svg width="65" height="65" viewBox="0 0 65 65" fill="none" xmlns="http://www.w3.org/2000/svg">
<rect width="65" height="65" rx="10" fill="#FC7114"/>
<path d="M32.5 10C20.0706 10 10 20.0706 10 32.5C10 44.9294 20.0706 55 32.5 55C44.9294 55 55 44.9294 55 32.5C55 20.0706 44.9294 10 32.5 10ZM42.9335 25.3054C42.5978 28.8619 41.128 37.499 40.3841 41.4819C40.0665 43.1694 39.4496 43.7319 38.8508 43.7863C37.5444 43.9042 36.5554 42.9244 35.2853 42.0897C33.3075 40.7923 32.1825 39.9849 30.2681 38.7147C28.0454 37.254 29.4879 36.4466 30.749 35.131C31.0847 34.7863 36.8367 29.5514 36.9456 29.0796C36.9637 29.0161 36.9728 28.7984 36.8367 28.6804C36.7006 28.5625 36.5101 28.6079 36.374 28.6351C36.1744 28.6774 33.0111 30.7671 26.8841 34.9042C25.9889 35.5212 25.1754 35.8206 24.4435 35.8024C23.6361 35.7843 22.0938 35.3488 20.9415 34.9768C19.5353 34.5232 18.4103 34.2782 18.5101 33.498C18.5585 33.0927 19.1179 32.6784 20.1885 32.255C26.745 29.4002 31.1179 27.5161 33.3075 26.6028C39.5585 24.0081 40.8558 23.5544 41.6996 23.5363C41.8901 23.5363 42.2984 23.5817 42.5706 23.7994C42.7482 23.9556 42.8614 24.1722 42.8881 24.4073C42.9372 24.704 42.9524 25.0053 42.9335 25.3054Z" fill="white"/>
</svg>
