<svg width="65" height="65" viewBox="0 0 65 65" fill="none" xmlns="http://www.w3.org/2000/svg">
<rect width="65" height="65" rx="10" fill="#FC7114"/>
<path d="M48.26 16.5391C44.0513 12.3203 38.4464 10 32.49 10C20.1953 10 10.1908 20.0045 10.1908 32.2991C10.1908 36.2266 11.2154 40.0636 13.1641 43.4487L10 55L21.8225 51.8962C25.077 53.6741 28.7433 54.6083 32.4799 54.6083H32.49C44.7746 54.6083 55 44.6038 55 32.3092C55 26.3527 52.4687 20.7578 48.26 16.5391ZM32.49 50.8516C29.1551 50.8516 25.8906 49.9576 23.048 48.2701L22.375 47.8683L15.3638 49.7065L17.2321 42.8661L16.7902 42.1629C14.9319 39.2098 13.9576 35.8047 13.9576 32.2991C13.9576 22.0837 22.2746 13.7667 32.5 13.7667C37.452 13.7667 42.1027 15.6953 45.5982 19.2009C49.0937 22.7065 51.2433 27.3571 51.2333 32.3092C51.2333 42.5346 42.7054 50.8516 32.49 50.8516ZM42.6551 36.9699C42.1027 36.6886 39.3605 35.3426 38.8482 35.1618C38.3359 34.971 37.9643 34.8806 37.5926 35.4431C37.221 36.0056 36.1562 37.2511 35.8248 37.6328C35.5033 38.0045 35.1719 38.0547 34.6194 37.7734C31.3449 36.1362 29.1953 34.8504 27.0357 31.144C26.4632 30.1596 27.6083 30.2299 28.673 28.1004C28.8538 27.7288 28.7634 27.4074 28.6228 27.1261C28.4821 26.8449 27.3672 24.1027 26.9051 22.9877C26.4531 21.9029 25.9911 22.0536 25.6496 22.0335C25.3281 22.0134 24.9565 22.0134 24.5848 22.0134C24.2132 22.0134 23.6105 22.154 23.0982 22.7065C22.5859 23.269 21.1496 24.615 21.1496 27.3571C21.1496 30.0993 23.1484 32.7511 23.4196 33.1228C23.7009 33.4944 27.3471 39.1194 32.942 41.5402C36.4777 43.067 37.8638 43.1975 39.6317 42.9364C40.7065 42.7757 42.9263 41.5904 43.3884 40.2846C43.8504 38.9788 43.8504 37.8638 43.7098 37.6328C43.5792 37.3817 43.2076 37.2411 42.6551 36.9699Z" fill="white"/>
</svg>
