<svg width="313" height="313" viewBox="0 0 313 313" fill="none" xmlns="http://www.w3.org/2000/svg">
<g filter="url(#filter0_d_207_70)">
<rect x="2" y="2" width="301" height="301" rx="150.5" fill="#EEEEEE"/>
</g>
<path d="M81.19 236.566C77.9375 236.566 76.9919 234.672 76.9919 231.835C76.9919 230.889 77.1106 229.822 77.2569 228.699C77.9694 223.792 79.7088 220.984 83.9069 220.984C86.7463 220.984 88.1306 222.254 88.1306 224.561V225.685H90.9475C90.9787 225.685 90.9788 224.65 90.9788 224.414C90.9788 221.044 88.9381 217.848 83.9113 217.848C77.0806 217.848 74.2719 221.559 73.2369 228.833C73.0888 229.809 73 230.721 73 231.693C73 235.981 74.6869 239.881 80.7181 239.881C85.3006 239.881 88.0225 237.646 89.6181 234.896L86.9269 233.084C85.1831 235.834 83.2894 236.566 81.19 236.566ZM99.6712 223.024C94.2 223.024 91.8363 225.831 91.0381 231.419C90.9444 232.065 90.8943 232.718 90.8881 233.371C90.8881 236.977 92.5738 239.847 97.2444 239.847C102.716 239.847 105.111 236.919 105.909 231.419C105.998 230.71 106.057 230.059 106.057 229.409C106.059 225.744 104.315 223.024 99.6712 223.024ZM101.948 231.421C101.356 235.472 100.086 236.714 97.6894 236.714C95.7687 236.714 94.8231 235.916 94.8231 233.521C94.8231 232.929 94.8831 232.22 95.0006 231.421C95.5925 227.4 96.775 226.158 99.1994 226.158C101.151 226.158 102.126 226.956 102.126 229.381C102.126 229.972 102.066 230.652 101.948 231.421ZM119.811 218.142L118.895 223.57C118.836 224.042 118.866 223.885 119.045 224.329C118.187 223.679 116.649 223.249 115.614 223.249C110.705 223.249 107.956 225.471 107.07 231.68C106.967 232.335 106.917 232.998 106.922 233.662C106.922 238.187 109.582 239.874 113.159 239.874C114.669 239.874 116.147 239.906 117.299 238.931L117.593 240.771H120.432L123.744 218.142H119.811ZM117.002 235.856C115.672 236.652 114.372 236.832 113.574 236.832C111.416 236.832 110.824 235.707 110.824 233.905C110.824 233.224 110.913 232.428 111.033 231.568C111.711 226.867 113.22 226.038 115.172 226.038C116.442 226.038 117.417 226.246 118.336 226.75L117.002 235.856ZM132.379 223.024C126.966 223.024 124.426 225.594 123.567 231.419C123.477 232.129 123.417 232.81 123.417 233.46C123.417 237.452 125.459 239.847 129.951 239.847C133.441 239.847 136.045 238.397 137.434 235.736L134.447 234.524C133.591 235.824 132.437 236.711 130.397 236.711C128.209 236.711 127.322 236.122 127.322 234.171C127.322 233.786 127.352 233.226 127.411 233.226H138.084C138.234 231.717 138.409 230.651 138.409 229.767C138.409 226.812 137.286 223.023 132.379 223.023V223.024ZM134.418 230.211H127.913C128.565 228.702 129.657 226.367 131.905 226.367C133.649 226.367 134.508 227.386 134.508 229.131C134.506 229.426 134.479 230.211 134.418 230.211ZM149.788 222.667L150.142 219.651H141.802L141.449 222.667H143.637L141.273 237.753H139.083L138.73 240.771H147.068L147.424 237.753H145.234L147.599 222.667H149.788ZM166.731 227.193L167.797 224.176H164.929L162.861 224.603C161.707 223.866 160.139 223.312 158.662 223.312C154.432 223.312 150.827 225.354 150.827 229.997C150.827 231.3 151.299 232.351 151.86 233.062C150.975 233.534 150.206 234.324 150.206 235.391C150.206 235.863 150.382 236.347 150.738 236.789C148.962 237.856 147.872 239.622 147.872 241.691C147.872 245.684 152.04 246.536 155.233 246.536C159.254 246.536 164.045 245.617 164.045 240.502C164.045 238.758 162.951 237.396 159.788 236.804L154.081 235.738C153.431 235.619 153.283 235.412 153.283 235.116C153.283 234.672 153.552 234.437 153.993 234.437L154.378 234.496C155.147 234.673 156.034 234.763 156.95 234.763C161.061 234.763 164.727 232.988 164.727 228.376C164.727 227.724 164.609 227.284 164.314 226.573C164.816 226.811 165.467 227.195 165.731 227.195H166.731V227.193ZM158.602 239.432C159.724 239.641 160.108 240.054 160.108 240.793C160.108 243.189 157.536 243.484 155.674 243.484C152.835 243.484 151.771 242.806 151.771 241.296C151.771 239.964 152.154 239.345 153.043 238.397L158.602 239.432ZM157.388 231.687C155.673 231.687 154.726 231.067 154.726 229.587C154.726 227.4 155.998 226.128 158.216 226.128C159.99 226.128 160.848 226.867 160.848 228.314C160.848 230.503 159.605 231.687 157.388 231.687ZM177.236 223.024C175.579 223.024 174.102 223.836 172.268 225.284L172.003 224.176H168.749L166.472 240.77H170.405L172.121 228.186C173.274 227.477 174.692 226.447 175.905 226.447C177.382 226.447 177.916 227.16 177.916 228.519C177.916 228.845 177.885 229.809 177.826 230.164L176.379 240.77H180.312L181.759 230.077C181.819 229.577 181.877 228.753 181.877 228.281C181.879 225.469 180.547 223.024 177.236 223.024ZM189.348 236.613L189.378 236.207L191.092 224.176H184.557L184.145 227.193H187.011C186.774 227.193 186.627 227.457 186.598 227.696L185.415 235.708C185.356 236.094 185.327 236.896 185.327 237.219C185.327 239.289 186.45 240.771 188.755 240.771H190.766L191.21 237.753H189.939C189.494 237.753 189.348 236.967 189.348 236.613ZM191.89 218.142H188.046C187.809 218.142 187.809 217.271 187.781 217.567L187.247 221.818C187.216 222.086 187.216 222.668 187.453 222.668H191.299C191.536 222.668 191.536 221.634 191.564 221.366L192.098 218.084C192.128 217.789 192.128 218.142 191.89 218.142ZM199.909 236.714C198.935 236.714 198.461 236.299 198.461 235.414L198.491 235.353L199.733 227.193H204.227L205.586 224.176H200.146L201.062 217.537L196.924 218.86L196.184 224.176H193.789L193.376 227.193H196.155C195.889 228.702 195.622 227.723 195.594 228.02L194.529 235.175C194.47 235.501 194.47 235.737 194.47 236.032C194.47 238.841 196.539 239.892 199.026 239.892C201.331 239.892 203.194 239.219 204.644 238.005L202.809 235.749C201.891 236.309 201.271 236.714 199.909 236.714ZM214.339 223.024C208.928 223.024 206.386 225.594 205.528 231.419C205.439 232.129 205.379 232.81 205.379 233.46C205.379 237.452 207.419 239.847 211.913 239.847C215.403 239.847 218.007 238.397 219.394 235.736L216.409 234.524C215.552 235.824 214.398 236.711 212.357 236.711C210.171 236.711 209.282 236.122 209.282 234.171C209.282 233.786 209.314 233.226 209.373 233.226H220.046C220.194 231.717 220.371 230.651 220.371 229.767C220.371 226.812 219.248 223.023 214.339 223.023V223.024ZM216.38 230.211H209.875C210.525 228.702 211.617 226.367 213.867 226.367C215.611 226.367 216.469 227.386 216.469 229.131C216.467 229.426 216.439 230.211 216.38 230.211ZM231.253 223.023C229.834 223.023 228.503 223.837 227.172 225.106L226.936 224.176H223.684L221.407 240.77H225.369L227.113 227.92C228.149 227.301 229.331 226.771 230.455 226.771C231.166 226.771 231.844 226.658 232.494 226.746L233 223.318C232.406 223.2 231.814 223.024 231.253 223.024V223.023ZM130.838 206.256C121.888 202.387 113.513 192.555 113.493 182.494C113.468 171.526 120.419 162.213 129.065 156.093C128.026 160.02 127.459 163.612 130.034 167.124C132.427 170.39 136.62 171.977 140.579 171.116C149.829 169.091 150.253 158.922 144.769 152.997C139.348 147.131 134.103 140.504 136.166 131.996C137.199 127.731 139.818 123.736 143.136 120.88C140.586 127.581 147.832 134.19 152.606 137.482C160.888 143.193 169.975 147.509 177.59 154.204C185.6 161.241 191.515 170.754 190.321 181.789C189.026 193.749 179.523 202.067 168.863 206.266C191.389 201.294 214.664 183.811 215.141 158.829C215.536 138.276 201.437 122.458 183.971 113.402L183.059 112.904C183.538 114.067 183.695 115.057 183.677 115.942C183.833 115.289 183.939 114.618 183.969 113.926C183.965 114.748 183.858 115.567 183.649 116.363L183.677 115.942C183.418 117.034 182.981 118.075 182.384 119.024L182.64 118.749C179.156 124.528 169.723 125.783 165.063 119.799C157.571 110.172 165.219 99.7937 166.289 89.6C167.629 76.8244 159.617 64.4219 149.683 57C155.154 65.8506 147.946 77.56 142.179 84.1062C136.587 90.4519 129.787 95.75 123.614 101.516C116.983 107.708 110.607 114.231 105.157 121.499C94.2556 136.047 87.5819 154.343 92.4862 172.492C97.3875 190.628 113.098 202.173 130.838 206.256L130.838 206.256Z" fill="#EE4323"/>
<defs>
<filter id="filter0_d_207_70" x="0" y="0" width="313" height="313" filterUnits="userSpaceOnUse" color-interpolation-filters="sRGB">
<feFlood flood-opacity="0" result="BackgroundImageFix"/>
<feColorMatrix in="SourceAlpha" type="matrix" values="0 0 0 0 0 0 0 0 0 0 0 0 0 0 0 0 0 0 127 0" result="hardAlpha"/>
<feMorphology radius="2" operator="dilate" in="SourceAlpha" result="effect1_dropShadow_207_70"/>
<feOffset dx="4" dy="4"/>
<feGaussianBlur stdDeviation="2"/>
<feComposite in2="hardAlpha" operator="out"/>
<feColorMatrix type="matrix" values="0 0 0 0 0.988235 0 0 0 0 0.443137 0 0 0 0 0.0784314 0 0 0 0.4 0"/>
<feBlend mode="normal" in2="BackgroundImageFix" result="effect1_dropShadow_207_70"/>
<feBlend mode="normal" in="SourceGraphic" in2="effect1_dropShadow_207_70" result="shape"/>
</filter>
</defs>
</svg>
