<svg width="65" height="65" viewBox="0 0 65 65" fill="none" xmlns="http://www.w3.org/2000/svg">
<rect width="65" height="65" rx="10" fill="#FC7114"/>
<g clip-path="url(#clip0_329_23)">
<path d="M49.375 10H15.625C12.5184 10 10 12.5184 10 15.625V49.375C10 52.4816 12.5184 55 15.625 55H49.375C52.4816 55 55 52.4816 55 49.375V15.625C55 12.5184 52.4816 10 49.375 10Z" fill="white"/>
<path d="M41.7047 14.9318C41.6064 14.9886 41.5907 15.0181 41.6168 14.9756C40.662 16.5839 40.6374 18.7055 40.2109 20.5995C40.2113 20.6141 40.2113 20.6288 40.2109 20.6434C40.2038 20.6711 40.2179 20.7037 40.2109 20.7313C40.0038 22.7646 39.3336 24.8382 39.8154 26.7945C39.8344 26.8369 39.8491 26.881 39.8593 26.9262C39.8635 26.9404 39.8551 26.956 39.8593 26.9701C39.8663 26.9813 39.8523 27.0034 39.8593 27.014C39.8677 27.0266 39.8949 27.0027 39.9032 27.014C40.006 27.1554 40.1315 27.2613 40.2107 27.2776C40.2674 27.2889 40.3657 27.2832 40.5622 27.1458C40.7749 26.9978 40.8952 26.7012 40.9577 26.311C40.9819 26.264 41.0114 26.2198 41.0455 26.1793C41.0451 26.1647 41.0451 26.1501 41.0455 26.1355C41.0558 26.0902 41.0704 26.0461 41.0894 26.0037C41.1034 25.9884 41.118 25.9738 41.1332 25.9599C41.9745 22.6039 42.5438 19.0821 42.3195 15.6347C42.2909 15.4634 42.2594 15.344 42.0999 15.1514C41.994 15.0239 41.9072 14.9507 41.8802 14.9318C41.8532 14.9128 41.89 14.9261 41.7923 14.9318C41.7777 14.9322 41.7631 14.9322 41.7484 14.9318C41.7123 14.936 41.7264 14.9309 41.7047 14.9318Z" fill="white"/>
<path d="M49.4501 16.5763C47.993 17.2844 47.2471 18.974 46.2427 20.3548C46.2328 20.4002 46.2181 20.4443 46.1989 20.4866C46.1865 20.5169 46.1718 20.5463 46.155 20.5744C44.8816 22.8312 43.2569 25.0839 43.0794 27.6922C43.0784 27.7069 43.0803 27.7214 43.0794 27.7361C43.0988 28.1297 43.3242 28.3434 43.5627 28.3951C43.7969 28.4457 44.2298 28.3116 44.3975 28.0436C44.4114 28.0283 44.4261 28.0136 44.4414 27.9997C44.4409 27.9851 44.4409 27.9705 44.4414 27.9559C44.4409 27.9413 44.4409 27.9266 44.4414 27.912C46.7556 24.7321 48.4964 20.9878 49.9335 17.3233C49.933 17.3087 49.933 17.294 49.9335 17.2794C50.0329 17.0388 50.0658 16.9772 49.9773 16.7961C49.9513 16.7425 49.6787 16.5589 49.538 16.5764C49.515 16.5862 49.4726 16.565 49.4501 16.5763Z" fill="white"/>
<path d="M26.7728 17.6253C26.5376 17.669 26.1878 17.8796 25.938 17.9768C25.0546 18.3119 24.5672 19.0692 24.3563 19.9539C24.1415 20.8591 24.2131 21.8672 24.3563 22.8977C24.4994 23.9261 24.7043 24.9877 24.9274 25.7975C25.1193 26.4982 25.2567 26.839 25.3229 27.0717V27.2474C25.3229 27.324 25.2862 27.3177 25.235 27.3791C25.2069 27.3945 25.2631 27.467 25.235 27.467C25.1713 27.5157 25.0945 27.5549 25.0153 27.5549C24.8592 27.5647 24.7372 27.5079 24.5759 27.467C24.466 27.4416 24.3229 27.3535 24.3563 27.3791C24.3052 27.3485 24.2138 27.345 24.1805 27.2913C24.1805 27.3118 24.2113 27.3114 24.1805 27.2474C24.1448 27.1809 24.105 27.0135 24.0488 26.8959C23.9235 26.6295 23.8251 26.3209 23.6533 25.9293C23.3105 25.1494 22.8694 24.1914 22.3792 23.2931C21.8871 22.3913 21.3075 21.5729 20.6656 21.0084C20.3448 20.7265 19.9488 20.4438 19.5672 20.3494C19.1989 20.2573 18.7618 20.3353 18.3809 20.5251C17.3968 21.0711 16.8397 21.9651 16.6235 22.8977C16.4062 23.8446 16.5089 24.9349 16.6674 25.8854C16.8284 26.8338 17.0777 27.6158 17.2385 28.258C17.3074 28.5287 17.3914 28.7815 17.4143 28.917C17.4143 29.0513 17.3596 29.4018 17.3264 29.5321C17.1602 30.1076 16.7562 31.0699 16.7552 31.0699C16.7552 31.0699 9.08854 51.4325 25.5426 50.0066C25.6781 49.9968 25.9859 49.9187 26.1137 49.9187C29.345 49.2682 32.4028 48.291 35.1207 47.1947C35.6547 46.9388 36.3553 46.6845 37.1418 46.3159C38.7149 45.5789 40.6912 44.6346 42.59 43.5919C44.4895 42.5484 46.2519 41.4365 47.5988 40.2527C48.9479 39.0671 49.9326 37.7679 49.7517 36.4741C49.4653 34.3884 48.0802 32.8384 46.2367 31.6411C44.3863 30.4394 42.0789 29.61 39.778 29.0049C37.4782 28.4001 35.245 27.9082 33.539 27.6428C32.6863 27.51 31.8871 27.4713 31.3861 27.3792C31.2379 27.3538 31.1587 27.3169 31.0786 27.2914C31.0354 27.2857 31.0316 27.2729 30.9907 27.2475C30.9397 27.2168 30.8457 27.2133 30.815 27.1596C30.7868 27.1085 30.815 27.0426 30.815 26.9838C30.815 26.9609 30.8147 26.9266 30.815 26.896V25.6218C30.7868 24.5701 30.725 23.1817 30.5074 21.8872C30.2875 20.5873 29.9485 19.3441 29.2332 18.5041C28.8081 18.0043 28.2063 17.6764 27.4758 17.6253C27.2559 17.5997 27.0103 17.5818 26.7728 17.6253Z" fill="white"/>
<path d="M45.8591 18.9001C45.8591 21.0972 44.078 22.8784 41.8808 22.8784C39.6837 22.8784 37.9026 21.0972 37.9026 18.9001C37.9026 16.703 39.6837 14.9219 41.8808 14.9219C44.078 14.9219 45.8591 16.703 45.8591 18.9001Z" fill="#FC7114"/>
<path d="M16.4077 50.0507C16.3863 49.9945 16.3721 48.6158 16.3761 47.0428L16.3834 44.1231H17.9592H19.5226C19.4935 39.9407 19.5516 35.6988 19.5226 31.5164L17.8135 31.5049L16.1791 31.4935L16.1226 28.4916L16.066 25.4897H17.783H19.5226V23.7021C19.5226 19.5155 22.0207 16.9834 26.3468 15.8997C28.9977 15.3586 30.4348 15.52 33.1356 15.5814L33.1919 18.7991L33.2481 22.0167H31.4553C28.6895 22.0167 27.881 22.686 27.8743 24.6212V25.4894C33.9351 25.4894 39.8433 25.4894 45.904 25.4894C45.904 31.6864 45.904 37.9262 45.904 44.1231H48.9171C48.9171 44.1231 48.9082 44.1049 48.9171 44.5399C48.9645 46.856 48.8948 47.2798 48.9171 50.0507C48.8506 50.1172 45.5771 50.0406 41.706 50.0507H34.6678V47.1049V44.1231C35.6893 44.1231 36.7108 44.1231 37.7322 44.1231C37.7322 39.9123 37.7322 35.7073 37.7322 31.4965C34.8843 31.5296 30.4154 31.5131 27.8743 31.4965C27.6801 36.2702 27.7615 38.4222 27.8743 44.1231C29.0151 44.1664 30.156 44.0854 31.297 44.1231L31.3532 47.1448L31.4094 50.0507H23.928C19.8132 50.0507 16.4291 50.1069 16.4077 50.0507Z" fill="#FC7114"/>
</g>
<defs>
<clipPath id="clip0_329_23">
<rect width="45" height="45" fill="white" transform="translate(10 10)"/>
</clipPath>
</defs>
</svg>
