<svg width="313" height="313" viewBox="0 0 313 313" fill="none" xmlns="http://www.w3.org/2000/svg">
<g filter="url(#filter0_d_207_70)">
<rect x="2" y="2" width="301" height="301" rx="150.5" fill="#EEEEEE"/>
</g>
<g clip-path="url(#clip0_207_70)">
<path d="M242.579 102.257C242.645 102.504 242.679 102.758 242.68 103.013V142.717C242.68 143.227 242.545 143.727 242.29 144.168C242.035 144.609 241.667 144.975 241.225 145.228L207.901 164.415V202.443C207.901 203.478 207.351 204.433 206.454 204.954L136.893 244.998C136.733 245.088 136.56 245.146 136.386 245.208C136.321 245.23 136.259 245.269 136.191 245.287C135.704 245.416 135.193 245.416 134.707 245.287C134.627 245.266 134.555 245.222 134.479 245.193C134.32 245.136 134.153 245.085 134.001 244.998L64.4547 204.954C64.0129 204.7 63.6458 204.335 63.3904 203.894C63.135 203.453 63.0004 202.952 63 202.443V83.3317C63 83.0711 63.0362 82.8178 63.1013 82.5718C63.123 82.4885 63.1737 82.4125 63.2026 82.3293C63.2569 82.1773 63.3076 82.0217 63.3872 81.8806C63.4415 81.7865 63.5211 81.7105 63.5862 81.6237C63.6694 81.5079 63.7454 81.3885 63.8431 81.2871C63.9264 81.2039 64.0349 81.1424 64.129 81.07C64.234 80.9832 64.328 80.8891 64.4475 80.8203L99.2262 60.7984C99.6665 60.545 100.166 60.4117 100.674 60.4117C101.182 60.4117 101.681 60.545 102.121 60.7984L136.896 80.8203H136.903C137.019 80.8927 137.117 80.9832 137.222 81.0664C137.316 81.1388 137.421 81.2039 137.504 81.2835C137.605 81.3885 137.678 81.5079 137.765 81.6237C137.826 81.7105 137.909 81.7865 137.96 81.8806C138.043 82.0253 138.09 82.1773 138.148 82.3293C138.177 82.4125 138.228 82.4885 138.25 82.5754C138.316 82.822 138.35 83.0762 138.351 83.3317V157.727L167.329 141.042V103.01C167.329 102.757 167.365 102.5 167.43 102.257C167.456 102.17 167.503 102.094 167.532 102.011C167.59 101.859 167.64 101.704 167.72 101.562C167.774 101.468 167.854 101.392 167.915 101.305C168.002 101.19 168.074 101.07 168.176 100.969C168.259 100.886 168.364 100.824 168.458 100.752C168.567 100.665 168.661 100.571 168.776 100.502L203.559 80.4802C203.999 80.2265 204.498 80.0929 205.006 80.0929C205.514 80.0929 206.014 80.2265 206.454 80.4802L241.229 100.502C241.352 100.574 241.446 100.665 241.554 100.748C241.645 100.821 241.75 100.886 241.833 100.965C241.934 101.07 242.007 101.19 242.094 101.305C242.159 101.392 242.238 101.468 242.289 101.562C242.372 101.704 242.419 101.859 242.477 102.011C242.51 102.094 242.557 102.17 242.579 102.257ZM236.883 141.042V108.025L224.713 115.031L207.901 124.711V157.727L236.886 141.042H236.883ZM202.108 200.767V167.729L185.571 177.174L138.347 204.125V237.475L202.108 200.767ZM68.7971 88.3435V200.767L132.55 237.471V204.129L99.2443 185.28L99.2334 185.272L99.219 185.265C99.1068 185.2 99.0127 185.106 98.9078 185.026C98.8173 184.954 98.7123 184.896 98.6327 184.816L98.6255 184.806C98.5314 184.715 98.4663 184.603 98.3867 184.502C98.3143 184.404 98.2275 184.321 98.1696 184.219L98.1659 184.208C98.1008 184.1 98.061 183.97 98.0139 183.847C97.9669 183.738 97.9054 183.637 97.8764 183.521C97.8403 183.383 97.833 183.235 97.8185 183.094C97.8041 182.985 97.7751 182.877 97.7751 182.768V105.029L80.9665 95.3456L68.7971 88.3435ZM100.677 66.6534L71.7028 83.3317L100.67 100.01L129.641 83.3281L100.67 66.6534H100.677ZM115.745 170.74L132.554 161.064V88.3435L120.384 95.3492L103.572 105.029V177.749L115.745 170.74ZM205.006 86.3351L176.035 103.013L205.006 119.692L233.973 103.01L205.006 86.3351ZM202.108 124.711L185.296 115.031L173.126 108.025V141.042L189.935 150.718L202.108 157.727V124.711ZM135.445 199.114L177.939 174.854L199.18 162.732L170.231 146.064L136.9 165.254L106.521 182.743L135.445 199.114Z" fill="#FF2D20"/>
</g>
<defs>
<filter id="filter0_d_207_70" x="0" y="0" width="313" height="313" filterUnits="userSpaceOnUse" color-interpolation-filters="sRGB">
<feFlood flood-opacity="0" result="BackgroundImageFix"/>
<feColorMatrix in="SourceAlpha" type="matrix" values="0 0 0 0 0 0 0 0 0 0 0 0 0 0 0 0 0 0 127 0" result="hardAlpha"/>
<feMorphology radius="2" operator="dilate" in="SourceAlpha" result="effect1_dropShadow_207_70"/>
<feOffset dx="4" dy="4"/>
<feGaussianBlur stdDeviation="2"/>
<feComposite in2="hardAlpha" operator="out"/>
<feColorMatrix type="matrix" values="0 0 0 0 0.988235 0 0 0 0 0.443137 0 0 0 0 0.0784314 0 0 0 0.4 0"/>
<feBlend mode="normal" in2="BackgroundImageFix" result="effect1_dropShadow_207_70"/>
<feBlend mode="normal" in="SourceGraphic" in2="effect1_dropShadow_207_70" result="shape"/>
</filter>
<clipPath id="clip0_207_70">
<rect width="180" height="185.697" fill="white" transform="translate(63 60)"/>
</clipPath>
</defs>
</svg>
