<svg width="313" height="313" viewBox="0 0 313 313" fill="none" xmlns="http://www.w3.org/2000/svg">
<g filter="url(#filter0_d_207_70)">
<rect x="2" y="2" width="301" height="301" rx="150.5" fill="#EEEEEE"/>
</g>
<path d="M134.905 142.658L134.905 142.655L133.305 149L134.905 142.658Z" fill="#131B28"/>
<path d="M142.683 165.907H142.685L132.118 165.95L142.683 165.907Z" fill="#131B28"/>
<path d="M143.609 165.101L145.45 157.25L143.609 165.103V165.101Z" fill="#131B28"/>
<path d="M173.699 128.943L171.096 142.412L173.699 128.942V128.943Z" fill="#131B28"/>
<path d="M181.926 128.132H174.594C174.187 128.132 173.783 128.497 173.696 128.941L171.093 142.411L168.49 155.881C168.404 156.326 168.001 156.69 167.594 156.69H163.145H162.404C157.27 156.69 157.864 152.718 158.915 147.276C158.926 147.221 158.936 147.168 158.947 147.112L159.062 146.426C159.069 146.382 159.077 146.337 159.084 146.297L159.318 144.9L159.569 143.403C159.646 142.952 159.762 142.293 159.837 141.878L161.021 135.411L162.205 128.944C162.287 128.498 162.02 128.132 161.613 128.132H154.087C153.68 128.132 153.277 128.498 153.194 128.943L151.576 137.53L149.958 146.116C149.957 146.12 149.956 146.125 149.956 146.129L149.805 146.927C147.941 156.445 148.436 165.521 158.565 165.806C158.731 165.811 158.859 165.812 158.859 165.812H174.76C175.167 165.812 175.569 165.447 175.654 165.001L179.083 146.973L182.512 128.943C182.597 128.497 182.333 128.132 181.926 128.132Z" fill="#131B28"/>
<path d="M211.176 156.784C211.583 156.784 211.849 157.149 211.768 157.595L211.055 161.487" fill="#131B28"/>
<path d="M210.345 165.381L211.056 161.487L210.344 165.382C210.344 165.381 210.345 165.381 210.345 165.381Z" fill="#131B28"/>
<path d="M209.452 166.2C209.453 166.2 209.454 166.199 209.455 166.199C207.298 166.219 200.814 166.274 195.94 166.274C201.871 166.274 209.451 166.201 209.451 166.201L209.452 166.2Z" fill="#131B28"/>
<path d="M191.566 151.771C191.56 151.344 191.994 150.61 192.401 150.61L191.486 150.593C191.073 155.235 191.566 151.771 191.566 151.771Z" fill="#131B28"/>
<path d="M211.176 156.784C211.583 156.784 211.849 157.149 211.768 157.595L211.055 161.487L210.939 162.122" fill="#131B28"/>
<path d="M200.051 166.263C199.457 166.266 198.865 166.268 198.282 166.27C198.865 166.269 199.458 166.266 200.051 166.263Z" fill="#131B28"/>
<path d="M209.457 166.199C207.875 166.213 203.971 166.246 200.077 166.263C203.969 166.247 207.875 166.213 209.457 166.199Z" fill="#131B28"/>
<path d="M210.345 165.383L210.941 162.122L210.344 165.385C210.344 165.384 210.345 165.384 210.345 165.383Z" fill="#131B28"/>
<path d="M89.7654 151.868L90.9042 146.221L89.6022 152.676L88.3525 159.252L89.4477 153.488C89.5322 153.042 89.6756 152.313 89.7654 151.868Z" fill="#131B28"/>
<path d="M103.397 128.037H95.3449C94.9375 128.037 94.5312 128.4 94.4403 128.844L93.6768 132.613L92.9133 136.384C92.8235 136.827 93.0829 137.191 93.4903 137.191H101.605C102.012 137.191 102.416 136.827 102.504 136.383L103.241 132.613L103.979 128.846V128.845C104.066 128.401 103.804 128.037 103.397 128.037Z" fill="#131B28"/>
<path d="M101.645 140.576V140.575L99.2828 152.796L101.645 140.576Z" fill="#131B28"/>
<path d="M78.2535 181.067C78.2535 181.067 82.3124 181.126 84.8926 181.126C82.9325 181.126 79.6954 181.085 78.2501 181.066C78.2516 181.066 78.2525 181.067 78.2539 181.067L78.2535 181.067Z" fill="#131B28"/>
<path d="M101.062 139.766H92.9465C92.5397 139.766 92.1329 140.13 92.0431 140.575L90.903 146.222L89.7642 151.869C89.6744 152.313 89.531 153.042 89.4465 153.488L88.3514 159.252L87.2568 165.016C87.1717 165.461 86.9968 166.179 86.8663 166.611C86.8663 166.611 85.3503 171.657 82.8015 171.6C82.6931 171.597 82.5876 171.596 82.4833 171.593C81.2482 171.567 80.2778 171.547 80.2778 171.547H80.2759C79.8696 171.541 79.461 171.895 79.3661 172.337L78.5244 176.295L77.684 180.25C77.5895 180.692 77.8448 181.058 78.2493 181.065C79.6948 181.085 82.9319 181.125 84.8918 181.125C91.2584 181.125 94.6145 177.18 96.766 165.826L99.2839 152.796L101.646 140.575C101.731 140.13 101.468 139.766 101.062 139.766L101.062 139.766Z" fill="#131B28"/>
<path d="M216.347 165.812C215.94 165.812 215.676 165.447 215.761 165.001L221.866 133.016" fill="#131B28"/>
<path d="M215.85 165.406C215.8 165.183 215.83 164.637 215.916 164.191L218.813 149.009L215.761 165.001C215.675 165.447 215.939 165.812 216.346 165.812H217.087C216.68 165.812 215.899 165.629 215.85 165.406Z" fill="#131B28"/>
<path d="M224.349 165.629C224.127 165.729 223.612 165.812 223.205 165.812H223.946C224.353 165.812 224.753 165.446 224.833 164.999L224.98 164.188C224.899 164.634 224.571 165.529 224.349 165.629Z" fill="#131B28"/>
<path d="M226.068 158.174L227.158 152.148C227.157 152.152 227.157 152.157 227.156 152.16L226.068 158.174Z" fill="#131B28"/>
<path d="M250.156 135.158L250.492 136.712C250.585 137.157 250.328 137.518 249.922 137.52" fill="#131B28"/>
<path d="M227.156 152.149C227.237 151.703 227.371 150.981 227.456 150.539L228.62 144.439L227.302 151.348L227.156 152.149Z" fill="#131B28"/>
<path d="M221.966 132.492C221.885 132.922 221.782 133.466 221.713 133.826L218.816 149.009L221.868 133.016L221.966 132.492Z" fill="#131B28"/>
<path d="M250.49 136.712L250.154 135.158L249.821 133.566L249.653 132.76C248.993 129.896 247.058 128.242 242.857 128.242L236.316 128.235L230.291 128.227H229.774H223.513C223.106 128.227 222.703 128.591 222.619 129.037H222.619L222.319 130.621L221.966 132.492L221.867 133.016L218.815 149.009L215.917 164.191C215.831 164.637 215.802 165.183 215.852 165.406C215.9 165.629 216.682 165.812 217.089 165.812H223.204C223.612 165.812 224.127 165.73 224.348 165.629C224.57 165.529 224.899 164.634 224.98 164.188L226.067 158.174L227.155 152.16C227.155 152.158 227.156 152.153 227.157 152.149L227.302 151.348L228.62 144.439L229.785 138.337C229.871 137.893 230.272 137.531 230.678 137.53L249.92 137.519C250.326 137.518 250.583 137.157 250.491 136.712L250.49 136.712Z" fill="#131B28"/>
<path d="M275.261 122.659C274.854 122.663 274.188 122.665 273.78 122.665H267.621C267.214 122.665 266.692 122.973 266.463 123.349L252.844 145.666C252.614 146.043 252.351 145.987 252.261 145.543L251.259 140.627C251.169 140.182 250.761 139.82 250.354 139.82H241.599C241.191 139.82 240.95 140.177 241.061 140.615L244.984 155.987C245.096 156.425 245.104 157.145 245.004 157.586L243.294 165.026C243.192 165.468 243.443 165.829 243.85 165.829H252.503C252.91 165.829 253.326 165.468 253.427 165.026L255.138 157.586C255.239 157.145 255.522 156.485 255.767 156.122L277.877 123.299C278.122 122.935 277.989 122.639 277.583 122.642L275.261 122.659Z" fill="#131B28"/>
<path d="M205.704 141.912L205.703 141.903C205.652 142.397 205.245 142.759 204.838 142.759H193.738C193.354 142.759 193.159 142.467 193.215 142.108C193.219 142.097 193.22 142.088 193.226 142.079C193.226 142.079 193.222 142.08 193.219 142.083C193.221 142.068 193.221 142.055 193.225 142.041C193.225 142.041 193.246 141.954 193.276 141.83C194.336 138.677 196.495 136.608 200.554 136.608C205.123 136.608 206.014 139.105 205.704 141.912ZM202.447 127.581C188.199 127.581 184.823 137.254 182.929 147.018C181.035 156.969 181.198 166.273 195.941 166.273H196.465C196.511 166.272 196.559 166.272 196.606 166.272H197.019H197.17H197.557C197.614 166.271 197.671 166.271 197.73 166.271C197.876 166.271 198.025 166.27 198.174 166.27H198.278C198.861 166.269 199.454 166.266 200.047 166.263H200.077C203.971 166.246 207.876 166.214 209.458 166.199C209.862 166.193 210.258 165.828 210.341 165.386L210.938 162.122L211.054 161.487L211.766 157.595C211.848 157.149 211.581 156.784 211.174 156.784H197.919C192.647 156.784 191.082 155.217 191.658 150.61H212.847L212.845 150.613C212.851 150.613 212.855 150.61 212.86 150.61C213.197 150.604 213.508 150.344 213.631 149.999C213.655 149.932 213.675 149.863 213.683 149.792L213.68 149.794C216.827 136.521 215.924 127.582 202.446 127.582L202.447 127.581Z" fill="#131B28"/>
<path d="M135.105 141.861L134.905 142.655C134.905 142.658 134.904 142.658 134.904 142.658L133.305 149L131.705 155.341C131.595 155.779 131.171 156.137 130.763 156.137H122.295C115.872 156.137 114.307 150.518 115.872 142.229C117.435 133.752 120.502 128.482 126.824 127.948C135.463 127.219 137.192 134.016 135.105 141.861ZM140.913 155.65C140.913 155.65 144.905 144.807 145.812 138.543C147.049 130.159 143.296 118 128.8 118C114.387 118 108.128 129.609 105.74 142.229C103.352 154.94 106.481 166.088 120.812 165.996L132.118 165.95L142.685 165.906C143.092 165.903 143.508 165.541 143.611 165.102L145.452 157.249C145.555 156.808 145.306 156.445 144.899 156.443L143.135 156.431L141.371 156.419C141.025 156.417 140.827 156.166 140.869 155.834C140.876 155.774 140.888 155.713 140.912 155.649L140.913 155.65Z" fill="#131B28"/>
<path d="M212.264 148.392C212.264 148.692 212.047 148.936 211.778 148.936C211.51 148.936 211.292 148.692 211.292 148.392C211.292 148.092 211.51 147.85 211.778 147.85C212.047 147.85 212.264 148.092 212.264 148.392Z" fill="#131B28"/>
<path d="M30.8545 134.294C26.8748 140.692 27.3703 149.015 30.4104 155.814C30.4827 155.977 30.5584 156.137 30.6331 156.297C30.6809 156.399 30.7257 156.503 30.7753 156.604C30.8033 156.664 30.8347 156.722 30.8639 156.78C30.9157 156.888 30.9688 156.991 31.0224 157.097C31.1168 157.283 31.2136 157.468 31.3126 157.653C31.3674 157.755 31.4216 157.857 31.4782 157.958C31.5878 158.157 31.7002 158.352 31.8151 158.548C31.8629 158.631 31.9095 158.715 31.9584 158.795C32.117 159.06 32.279 159.324 32.4463 159.583C32.4504 159.59 32.455 159.597 32.4602 159.604C32.4865 159.646 32.5156 159.686 32.5424 159.728C32.687 159.951 32.8362 160.171 32.9871 160.389C33.0425 160.468 33.0985 160.548 33.1544 160.627C33.289 160.816 33.426 161.004 33.5653 161.192C33.6172 161.262 33.6696 161.333 33.7221 161.402C33.9092 161.648 34.0998 161.893 34.2944 162.133C34.298 162.137 34.3026 162.142 34.3061 162.146C34.3143 162.157 34.3212 162.163 34.3282 162.174C34.5182 162.406 34.7129 162.633 34.9099 162.859C34.9711 162.93 35.0335 163 35.0964 163.069C35.2491 163.241 35.4042 163.411 35.5609 163.579C35.6245 163.647 35.6874 163.716 35.751 163.781C35.9602 164.002 36.1718 164.218 36.3874 164.429C36.391 164.433 36.3938 164.436 36.3973 164.438C36.434 164.475 36.4719 164.509 36.5081 164.544C36.6981 164.728 36.8916 164.91 37.0862 165.09C37.1655 165.162 37.2459 165.233 37.3258 165.304C37.4849 165.446 37.6458 165.587 37.8078 165.725C37.8935 165.798 37.9791 165.871 38.0654 165.944C38.2443 166.092 38.4244 166.236 38.6063 166.379C38.6727 166.432 38.7368 166.484 38.8033 166.535C38.8219 166.549 38.8389 166.564 38.8575 166.578C39.03 166.711 39.2066 166.839 39.3826 166.967C39.4584 167.023 39.5336 167.081 39.61 167.136C39.8804 167.328 40.1549 167.517 40.4323 167.699C40.5075 167.748 40.5839 167.795 40.6596 167.843C40.8636 167.975 41.0688 168.104 41.2769 168.23C41.3894 168.298 41.5048 168.362 41.6184 168.427C41.7653 168.513 41.911 168.6 42.0602 168.684C42.094 168.702 42.129 168.72 42.1622 168.739C42.2222 168.771 42.2829 168.802 42.3429 168.836C42.5743 168.96 42.8074 169.082 43.0429 169.199C43.093 169.224 43.1414 169.248 43.191 169.273C43.4608 169.405 43.733 169.531 44.0075 169.653C44.0734 169.683 44.1398 169.711 44.2063 169.74C44.4604 169.849 44.718 169.958 44.9768 170.059C45.0095 170.072 45.0409 170.084 45.0736 170.097C45.3574 170.208 45.6442 170.311 45.9327 170.411C46.0014 170.434 46.0708 170.458 46.1402 170.48C46.4339 170.58 46.7242 170.698 47.0272 170.761C66.2739 174.687 71.8646 157.824 71.8646 157.824C67.1692 164.666 58.8345 166.471 50.9377 164.462C50.6387 164.386 50.3485 164.282 50.0564 164.185C49.9824 164.16 49.9096 164.136 49.8367 164.111C49.5517 164.013 49.269 163.91 48.9881 163.802C48.9496 163.786 48.9106 163.771 48.8715 163.755C48.6197 163.656 48.3709 163.551 48.1231 163.445C48.0532 163.413 47.9833 163.383 47.9133 163.352C47.6417 163.232 47.3719 163.107 47.1055 162.977C47.0507 162.95 46.9982 162.923 46.944 162.897C46.715 162.781 46.4883 162.664 46.2627 162.542C46.1974 162.507 46.1321 162.473 46.0657 162.437C45.8886 162.34 45.7133 162.237 45.5386 162.137C45.4216 162.068 45.3027 162.003 45.1867 161.93C44.9732 161.803 44.7636 161.67 44.555 161.534C44.4843 161.49 44.4127 161.447 44.3416 161.401C44.0642 161.219 43.7901 161.029 43.5189 160.838C43.4439 160.784 43.3709 160.727 43.2969 160.672C43.1001 160.53 42.9044 160.385 42.7115 160.237C42.6475 160.188 42.5859 160.137 42.5229 160.088C42.3367 159.941 42.1524 159.792 41.9695 159.641C41.8864 159.572 41.8048 159.503 41.7241 159.434C41.5565 159.29 41.3899 159.145 41.2247 158.997C41.15 158.93 41.0754 158.864 41.002 158.797C40.7922 158.604 40.5847 158.41 40.3801 158.211C40.3586 158.19 40.3352 158.169 40.3119 158.147C40.0904 157.929 39.873 157.706 39.658 157.482C39.5956 157.415 39.535 157.35 39.4738 157.284C39.3147 157.114 39.1579 156.943 39.004 156.769C38.9422 156.699 38.8805 156.632 38.8198 156.563C38.624 156.338 38.4317 156.111 38.2434 155.881C38.2341 155.869 38.2242 155.858 38.2149 155.847C38.0155 155.603 37.8209 155.354 37.6303 155.102C37.5784 155.033 37.5283 154.967 37.477 154.899C37.3347 154.707 37.1937 154.513 37.0561 154.317C37.0046 154.247 36.953 154.175 36.9019 154.102C36.7362 153.862 36.5744 153.622 36.4159 153.378C32.0316 146.689 30.4566 137.463 33.9607 129.887" fill="#0868AC"/>
<path d="M43.2083 128.903C40.3303 133.536 40.4864 139.737 42.7316 144.637C43.1081 145.458 43.5312 146.255 44.0045 147.014C44.4358 147.705 44.9137 148.527 45.4861 149.083C45.6936 149.338 45.9104 149.587 46.1319 149.833C46.1878 149.897 46.2449 149.958 46.3021 150.02C46.5171 150.254 46.7357 150.483 46.9618 150.706C46.9711 150.714 46.9793 150.724 46.9886 150.732C46.991 150.735 46.9934 150.736 46.995 150.739C47.245 150.984 47.5032 151.22 47.7655 151.452C47.8238 151.502 47.8815 151.554 47.9404 151.605C48.2033 151.83 48.4714 152.052 48.7465 152.263C48.7546 152.27 48.7616 152.276 48.7698 152.283C48.891 152.377 49.0146 152.464 49.1376 152.554C49.1964 152.597 49.2524 152.643 49.3118 152.683C49.5083 152.824 49.707 152.961 49.9092 153.092C49.9378 153.112 49.9658 153.129 49.9938 153.147C50.168 153.259 50.3446 153.37 50.5218 153.477C50.5836 153.516 50.6466 153.55 50.7095 153.587C50.8319 153.658 50.9543 153.731 51.079 153.8C51.0977 153.811 51.1169 153.82 51.135 153.829C51.3885 153.969 51.6444 154.103 51.9055 154.231C51.9614 154.258 52.0191 154.283 52.0757 154.309C52.2843 154.408 52.4953 154.505 52.7075 154.596C52.7972 154.634 52.8881 154.67 52.9779 154.707C53.1702 154.786 53.3632 154.859 53.5578 154.932C53.6458 154.963 53.7321 154.996 53.8201 155.026C54.097 155.123 54.3703 155.244 54.6588 155.297C69.519 158.051 72.9496 145.254 72.9496 145.254C69.8571 150.236 63.8682 152.613 57.4773 150.757C57.1935 150.674 56.9137 150.583 56.6357 150.485C56.5506 150.456 56.4672 150.425 56.3827 150.393C56.1852 150.322 55.9887 150.246 55.7941 150.167C55.7049 150.13 55.6157 150.094 55.5283 150.056C55.315 149.964 55.104 149.869 54.8947 149.77C54.8376 149.743 54.7799 149.718 54.724 149.689C54.4617 149.562 54.2035 149.427 53.9488 149.286C53.8176 149.215 53.6888 149.139 53.56 149.065C53.4854 149.022 53.4102 148.979 53.3356 148.936C53.1701 148.835 53.0057 148.731 52.8437 148.625C52.8053 148.601 52.765 148.577 52.726 148.551C52.5249 148.419 52.3267 148.284 52.1303 148.144C52.0697 148.101 52.0114 148.054 51.9508 148.01C51.8214 147.916 51.692 147.821 51.5649 147.724C51.291 147.513 51.0246 147.292 50.7618 147.067C50.7011 147.014 50.6405 146.962 50.5811 146.908C47.7836 144.438 45.5662 141.062 44.512 137.234C43.4071 133.264 43.6454 128.807 45.5596 125.19" fill="#0868AC"/>
<path d="M53.5984 124.876C51.9017 127.669 51.735 131.137 52.9123 134.222C54.1538 137.496 56.6979 140.065 59.6671 141.282C59.7895 141.333 59.9119 141.379 60.036 141.426C60.0902 141.444 60.1438 141.465 60.1986 141.483C60.3735 141.544 60.5472 141.616 60.7279 141.654C68.9331 143.427 71.1586 136.944 71.7511 135.99C69.8016 139.13 66.5253 139.883 62.5055 138.792C62.188 138.706 61.8389 138.577 61.5329 138.456C61.1404 138.3 60.7536 138.121 60.3779 137.92C59.6641 137.536 58.9837 137.07 58.3529 136.537C54.7557 133.485 52.5212 127.661 54.8684 122.918" fill="#0868AC"/>
<path d="M146.011 179.273L143.646 185.298H141.034L141.248 179.823L139.326 185.298H136.798L136.731 179.273L137.01 177.785H138.801L138.456 183.736L140.443 177.785H142.94L142.759 183.81L144.73 177.785H146.29L146.011 179.273Z" fill="#0868AC"/>
<path d="M150.131 181.056C150.362 179.88 150.296 179.66 149.754 179.66H148.932L148.407 182.416L147.602 185.299H146.075L147.323 178.76L147.504 177.804H148.9L149.08 178.245C149.08 178.245 149.885 177.713 150.673 177.713C152.348 177.713 152.217 179.126 151.855 181.056L150.131 181.056Z" fill="#0868AC"/>
<path d="M155.092 176.848C154.42 176.848 153.992 176.628 154.156 175.71C154.337 174.79 154.863 174.57 155.519 174.57C156.177 174.57 156.62 174.79 156.439 175.71C156.275 176.609 155.75 176.848 155.092 176.848ZM154.37 185.298H152.858L153.154 182.36L153.68 179.641L152.629 179.383L152.925 177.786H155.798L154.37 185.298Z" fill="#0868AC"/>
<path d="M160.922 179.379L159.034 179.638L158.491 182.503C158.343 183.294 158.343 183.514 158.968 183.514H160.232L159.969 185.02C159.969 185.02 158.82 185.406 158.327 185.406C156.389 185.406 156.405 184.212 156.751 182.429L157.276 179.619L156.225 179.363L156.537 177.764H157.638L158.262 175.871H159.756L159.395 177.764H161.234L160.922 179.379Z" fill="#0868AC"/>
<path d="M164.847 179.476C163.96 179.476 163.5 179.991 163.32 180.909L165.849 180.67C165.964 180.045 165.849 179.476 164.847 179.476ZM163.074 182.267C162.958 183.186 163.27 183.498 164.321 183.498H166.965L166.703 184.894C166.703 184.894 165.11 185.39 163.927 185.39C160.987 185.39 160.954 183.536 161.332 181.551C161.71 179.603 162.383 177.676 165.224 177.676C167.967 177.676 168.099 179.53 167.425 182.267L163.074 182.267Z" fill="#0868AC"/>
<path d="M173.451 185.297H171.941L172.236 182.358L173.304 176.773L172.252 176.498L172.564 174.9H175.439L173.451 185.297Z" fill="#0868AC"/>
<path d="M178.908 179.476C178.021 179.476 177.561 179.991 177.38 180.909L179.91 180.67C180.024 180.045 179.91 179.476 178.908 179.476ZM177.134 182.267C177.019 183.186 177.332 183.498 178.382 183.498H181.026L180.764 184.894C180.764 184.894 179.17 185.39 177.987 185.39C175.048 185.39 175.016 183.536 175.393 181.551C175.771 179.603 176.445 177.676 179.285 177.676C182.028 177.676 182.159 179.53 181.487 182.267L177.134 182.267Z" fill="#0868AC"/>
<path d="M188.415 179.566C188.415 179.566 186.493 179.585 185.968 179.585C184.851 179.585 184.736 179.969 184.654 180.373L184.588 180.741L188.135 181.036C188.135 181.036 188.152 182.303 188.004 183.019C187.79 184.213 186.69 185.425 184.703 185.425C183.717 185.425 182.124 185.004 182.124 185.004L182.403 183.552H184.851C185.935 183.552 186.083 183.221 186.149 182.891L186.231 182.414L182.749 182.119C182.749 182.119 182.618 181.145 182.798 180.173C183.061 178.849 184.144 177.711 186.132 177.711C187.117 177.711 188.71 178.114 188.71 178.114L188.415 179.566Z" fill="#0868AC"/>
<path d="M195.018 179.566C195.018 179.566 193.097 179.585 192.571 179.585C191.454 179.585 191.34 179.969 191.257 180.373L191.191 180.741L194.739 181.036C194.739 181.036 194.756 182.303 194.608 183.019C194.394 184.213 193.294 185.425 191.306 185.425C190.321 185.425 188.728 185.004 188.728 185.004L189.007 183.552H191.454C192.538 183.552 192.686 183.221 192.752 182.891L192.834 182.414L189.352 182.119C189.352 182.119 189.221 181.145 189.401 180.173C189.664 178.849 190.747 177.711 192.735 177.711C193.72 177.711 195.313 178.114 195.313 178.114L195.018 179.566Z" fill="#0868AC"/>
<path d="M197.085 186.493H195.772L195.821 185.39C195.344 185.355 195.098 184.969 195.213 184.325C195.394 183.407 195.903 183.187 196.577 183.187C197.233 183.187 197.676 183.407 197.496 184.325L197.085 186.493Z" fill="#0868AC"/>
<path d="M205.871 179.641C204.886 179.641 204.541 180.302 204.311 181.515C204.081 182.727 204.147 183.443 205.132 183.443H206.495L207.251 179.641H205.871ZM208.121 184.325L207.94 185.299L206.561 185.28L206.364 184.803C206.364 184.803 205.148 185.39 204.328 185.39C202.225 185.39 202.127 183.461 202.504 181.515C202.882 179.53 203.703 177.657 205.789 177.657C206.545 177.657 207.563 178.079 207.563 178.079L208.4 174.902H209.912L208.121 184.325Z" fill="#0868AC"/>
<path d="M213.558 179.566C212.277 179.566 211.866 180.373 211.636 181.55C211.423 182.744 211.522 183.552 212.786 183.552C214.1 183.552 214.495 182.762 214.724 181.55C214.954 180.41 214.888 179.566 213.558 179.566ZM212.442 185.408C209.732 185.408 209.518 183.516 209.879 181.55C210.257 179.585 211.21 177.711 213.92 177.711C216.613 177.711 216.86 179.585 216.481 181.55C216.104 183.553 215.151 185.408 212.442 185.408Z" fill="#0868AC"/>
<path d="M227.815 185.297L228.111 182.394L228.259 181.568C228.473 180.466 228.604 179.658 227.569 179.658H226.764C226.798 180.227 226.699 180.87 226.567 181.55L225.862 185.297H224.334L224.629 182.394L224.777 181.568C224.991 180.466 225.121 179.658 224.088 179.658H223.43L222.346 185.297H220.589L222.018 177.784H223.397L223.611 178.243C223.611 178.243 224.547 177.692 225.303 177.692C225.877 177.692 226.304 177.986 226.452 178.353C226.781 178.151 227.717 177.692 228.391 177.692C230.492 177.692 230.427 179.602 230.049 181.55L229.343 185.297L227.815 185.297Z" fill="#0868AC"/>
<path d="M234.796 179.566C233.514 179.566 233.104 180.373 232.874 181.55C232.661 182.744 232.76 183.552 234.024 183.552C235.337 183.552 235.732 182.762 235.962 181.55C236.192 180.41 236.126 179.566 234.796 179.566ZM233.679 185.408C230.968 185.408 230.756 183.516 231.117 181.55C231.495 179.585 232.447 177.711 235.157 177.711C237.851 177.711 238.097 179.585 237.719 181.55C237.342 183.553 236.389 185.408 233.679 185.408Z" fill="#0868AC"/>
<path d="M242.283 181.056C242.512 179.88 242.447 179.66 241.905 179.66H241.084L240.558 182.416L239.753 185.299H238.226L239.474 178.76L239.655 177.804H241.051L241.231 178.245C241.231 178.245 242.036 177.713 242.825 177.713C244.5 177.713 244.368 179.126 244.007 181.056L242.283 181.056Z" fill="#0868AC"/>
<path d="M248.165 179.476C247.279 179.476 246.819 179.991 246.639 180.909L249.166 180.67C249.282 180.045 249.166 179.476 248.165 179.476ZM246.391 182.267C246.277 183.186 246.588 183.498 247.639 183.498H250.284L250.021 184.894C250.021 184.894 248.428 185.39 247.246 185.39C244.306 185.39 244.273 183.536 244.65 181.551C245.028 179.603 245.702 177.676 248.543 177.676C251.285 177.676 251.417 179.53 250.744 182.267L246.391 182.267Z" fill="#0868AC"/>
<path d="M252.219 185.409C251.529 185.409 251.102 185.189 251.283 184.289C251.446 183.368 251.956 183.149 252.646 183.149C253.286 183.149 253.729 183.368 253.566 184.289C253.384 185.17 252.86 185.409 252.219 185.409Z" fill="#0868AC"/>
<defs>
<filter id="filter0_d_207_70" x="0" y="0" width="313" height="313" filterUnits="userSpaceOnUse" color-interpolation-filters="sRGB">
<feFlood flood-opacity="0" result="BackgroundImageFix"/>
<feColorMatrix in="SourceAlpha" type="matrix" values="0 0 0 0 0 0 0 0 0 0 0 0 0 0 0 0 0 0 127 0" result="hardAlpha"/>
<feMorphology radius="2" operator="dilate" in="SourceAlpha" result="effect1_dropShadow_207_70"/>
<feOffset dx="4" dy="4"/>
<feGaussianBlur stdDeviation="2"/>
<feComposite in2="hardAlpha" operator="out"/>
<feColorMatrix type="matrix" values="0 0 0 0 0.988235 0 0 0 0 0.443137 0 0 0 0 0.0784314 0 0 0 0.4 0"/>
<feBlend mode="normal" in2="BackgroundImageFix" result="effect1_dropShadow_207_70"/>
<feBlend mode="normal" in="SourceGraphic" in2="effect1_dropShadow_207_70" result="shape"/>
</filter>
</defs>
</svg>
