<svg width="313" height="313" viewBox="0 0 313 313" fill="none" xmlns="http://www.w3.org/2000/svg">
<g filter="url(#filter0_d_207_70)">
<rect x="2" y="2" width="301" height="301" rx="150.5" fill="#EEEEEE"/>
</g>
<g clip-path="url(#clip0_207_70)">
<path d="M151.853 213.49C151.192 213.49 150.537 213.317 149.958 212.984L143.928 209.414C143.028 208.91 143.467 208.732 143.764 208.63C144.965 208.209 145.209 208.114 146.491 207.386C146.625 207.309 146.802 207.337 146.939 207.418L151.572 210.167C151.739 210.257 151.976 210.257 152.132 210.167L170.193 199.741C170.361 199.646 170.469 199.452 170.469 199.253V178.411C170.469 178.203 170.361 178.017 170.19 177.913L152.135 167.497C151.968 167.397 151.746 167.397 151.579 167.497L133.528 177.913C133.353 178.013 133.242 178.207 133.242 178.406V199.248C133.242 199.447 133.35 199.637 133.522 199.732L138.468 202.589C141.154 203.932 142.795 202.35 142.795 200.758V180.187C142.795 179.893 143.026 179.667 143.319 179.667H145.607C145.892 179.667 146.127 179.893 146.127 180.187V200.767C146.127 204.348 144.174 206.405 140.779 206.405C139.734 206.405 138.911 206.405 136.615 205.275L131.877 202.544C130.706 201.866 129.982 200.6 129.982 199.248V178.406C129.982 177.05 130.706 175.784 131.877 175.115L149.956 164.684C151.1 164.038 152.619 164.038 153.754 164.684L171.811 175.119C172.978 175.793 173.706 177.054 173.706 178.411V199.253C173.706 200.605 172.978 201.866 171.811 202.544L153.754 212.974C153.175 213.309 152.52 213.481 151.851 213.481" fill="#689F63"/>
<path d="M157.432 199.128C149.529 199.128 147.872 195.501 147.872 192.458C147.872 192.169 148.105 191.938 148.395 191.938H150.728C150.985 191.938 151.202 192.126 151.243 192.38C151.596 194.758 152.645 195.956 157.423 195.956C161.23 195.956 162.849 195.097 162.849 193.078C162.849 191.916 162.388 191.052 156.474 190.474C151.528 189.985 148.472 188.896 148.472 184.94C148.472 181.296 151.546 179.126 156.696 179.126C162.478 179.126 165.344 181.133 165.706 185.446C165.72 185.595 165.665 185.74 165.566 185.849C165.466 185.953 165.326 186.016 165.182 186.016H162.835C162.591 186.016 162.379 185.844 162.329 185.609C161.764 183.109 160.398 182.309 156.687 182.309C152.532 182.309 152.048 183.755 152.048 184.84C152.048 186.156 152.618 186.54 158.224 187.282C163.776 188.019 166.411 189.059 166.411 192.96C166.411 196.894 163.129 199.15 157.405 199.15M179.405 177.046H180.011C180.508 177.046 180.603 176.698 180.603 176.495C180.603 175.961 180.237 175.961 180.033 175.961H179.41L179.405 177.046ZM178.668 175.337H180.011C180.472 175.337 181.376 175.337 181.376 176.368C181.376 177.087 180.915 177.236 180.639 177.326C181.177 177.363 181.213 177.715 181.286 178.213C181.322 178.524 181.381 179.062 181.489 179.243H180.662C180.639 179.062 180.513 178.068 180.513 178.014C180.458 177.792 180.382 177.684 180.106 177.684H179.423V179.248H178.668V175.337ZM177.054 177.281C177.054 178.9 178.361 180.211 179.966 180.211C181.584 180.211 182.891 178.873 182.891 177.281C182.891 175.658 181.566 174.37 179.961 174.37C178.379 174.37 177.05 175.64 177.05 177.277M183.451 177.29C183.451 179.207 181.883 180.771 179.97 180.771C178.071 180.771 176.489 179.225 176.489 177.29C176.489 175.319 178.107 173.809 179.97 173.809C181.846 173.809 183.447 175.324 183.447 177.29" fill="#689F63"/>
<path fill-rule="evenodd" clip-rule="evenodd" d="M95.9215 131.938C95.9215 131.107 95.483 130.343 94.765 129.929L75.6155 118.911C75.2922 118.721 74.9301 118.622 74.5629 118.608H74.3649C73.9978 118.622 73.6357 118.721 73.307 118.911L54.1583 129.929C53.4449 130.345 53 131.109 53 131.941L53.042 161.617C53.042 162.029 53.2545 162.413 53.6162 162.616C53.9689 162.833 54.4119 162.833 54.7646 162.616L66.1487 156.097C66.8676 155.669 67.3061 154.913 67.3061 154.09V140.226C67.3061 139.398 67.7447 138.634 68.4613 138.223L73.3079 135.431C73.6678 135.224 74.0629 135.12 74.4653 135.12C74.8613 135.12 75.2655 135.223 75.6155 135.431L80.4598 138.221C81.1769 138.633 81.6172 139.397 81.6172 140.224V154.087C81.6172 154.91 82.0616 155.67 82.7769 156.095L94.1538 162.61C94.511 162.822 94.9554 162.822 95.3112 162.61C95.662 162.406 95.8845 162.022 95.8845 161.61L95.9215 131.938ZM186.284 147.39C186.284 147.596 186.174 147.788 185.995 147.89L179.417 151.681C179.239 151.784 179.018 151.784 178.84 151.681L172.262 147.89C172.081 147.787 171.972 147.596 171.972 147.39V139.796C171.972 139.589 172.081 139.398 172.257 139.294L178.831 135.497C179.012 135.393 179.233 135.393 179.414 135.497L185.992 139.294C186.173 139.398 186.282 139.589 186.282 139.796L186.284 147.39ZM188.061 91.1464C187.702 90.9466 187.265 90.952 186.911 91.1586C186.558 91.3666 186.34 91.7463 186.34 92.1578V121.545C186.34 121.834 186.186 122.101 185.936 122.246C185.687 122.39 185.377 122.39 185.126 122.246L180.33 119.483C179.615 119.07 178.735 119.07 178.018 119.483L158.863 130.538C158.147 130.95 157.705 131.714 157.705 132.537V154.654C157.705 155.481 158.147 156.241 158.863 156.657L178.018 167.72C178.734 168.131 179.614 168.131 180.332 167.72L199.488 156.652C200.202 156.236 200.645 155.477 200.645 154.649V99.5281C200.645 98.6889 200.189 97.9172 199.456 97.5071L188.061 91.1464ZM251.85 139.596C252.562 139.183 253 138.42 253 137.597V132.237C253 131.412 252.561 130.651 251.848 130.236L232.815 119.187C232.096 118.771 231.214 118.771 230.495 119.187L211.344 130.241C210.625 130.657 210.187 131.416 210.187 132.244V154.352C210.187 155.184 210.634 155.952 211.353 156.364L230.382 167.21C231.083 167.612 231.942 167.617 232.652 167.223L244.163 160.826C244.524 160.623 244.755 160.238 244.755 159.822C244.755 159.406 244.533 159.018 244.172 158.814L224.903 147.756C224.541 147.552 224.319 147.168 224.319 146.756V139.821C224.319 139.407 224.537 139.025 224.898 138.819L230.893 135.361C231.25 135.153 231.689 135.153 232.046 135.361L238.046 138.819C238.403 139.023 238.624 139.407 238.624 139.818V145.271C238.624 145.682 238.846 146.066 239.203 146.274C239.56 146.478 240.003 146.478 240.36 146.27L251.85 139.596Z" fill="#333333"/>
<path fill-rule="evenodd" clip-rule="evenodd" d="M231.375 138.562C231.51 138.482 231.68 138.482 231.818 138.562L235.493 140.682C235.631 140.762 235.715 140.908 235.715 141.067V145.312C235.715 145.47 235.631 145.617 235.493 145.696L231.818 147.817C231.68 147.897 231.51 147.897 231.375 147.817L227.701 145.696C227.561 145.617 227.475 145.47 227.475 145.312V141.067C227.475 140.908 227.557 140.762 227.697 140.682L231.375 138.562Z" fill="#689F63"/>
<mask id="mask0_207_70" style="mask-type:luminance" maskUnits="userSpaceOnUse" x="105" y="118" width="44" height="50">
<path d="M125.665 119.297L106.617 130.291C105.904 130.703 105.466 131.462 105.466 132.283V154.286C105.466 155.108 105.904 155.867 106.617 156.278L125.666 167.281C126.378 167.691 127.256 167.691 127.968 167.281L147.013 156.278C147.723 155.867 148.161 155.107 148.161 154.286V132.283C148.161 131.462 147.723 130.703 147.009 130.291L127.966 119.297C127.609 119.092 127.211 118.99 126.813 118.99C126.415 118.99 126.017 119.092 125.66 119.297" fill="white"/>
</mask>
<g mask="url(#mask0_207_70)">
<path d="M167.41 128.424L113.737 102.116L86.2174 158.256L139.888 184.566L167.41 128.424Z" fill="url(#paint0_linear_207_70)"/>
</g>
<mask id="mask1_207_70" style="mask-type:luminance" maskUnits="userSpaceOnUse" x="105" y="119" width="43" height="49">
<path d="M105.938 155.683C106.121 155.92 106.349 156.125 106.617 156.278L122.956 165.716L125.678 167.28C126.085 167.516 126.548 167.615 127.004 167.581C127.156 167.569 127.308 167.54 127.456 167.498L147.545 130.715C147.392 130.547 147.212 130.407 147.01 130.29L134.538 123.088L127.945 119.294C127.758 119.186 127.555 119.109 127.349 119.055L105.938 155.683Z" fill="white"/>
</mask>
<g mask="url(#mask1_207_70)">
<path d="M82.7325 136.206L120.631 187.499L170.752 150.468L132.851 99.1764L82.7325 136.206Z" fill="url(#paint1_linear_207_70)"/>
</g>
<mask id="mask2_207_70" style="mask-type:luminance" maskUnits="userSpaceOnUse" x="106" y="118" width="43" height="50">
<path d="M126.585 119.002C126.266 119.034 125.953 119.133 125.665 119.297L106.672 130.259L127.153 167.563C127.438 167.522 127.718 167.427 127.971 167.281L147.019 156.278C147.606 155.937 148.009 155.361 148.131 154.707L127.252 119.04C127.099 119.01 126.945 118.994 126.787 118.994C126.723 118.994 126.66 118.997 126.597 119.003" fill="white"/>
</mask>
<g mask="url(#mask2_207_70)">
<path d="M106.672 118.994V167.564H148.123V118.994H106.672Z" fill="url(#paint2_linear_207_70)"/>
</g>
</g>
<defs>
<filter id="filter0_d_207_70" x="0" y="0" width="313" height="313" filterUnits="userSpaceOnUse" color-interpolation-filters="sRGB">
<feFlood flood-opacity="0" result="BackgroundImageFix"/>
<feColorMatrix in="SourceAlpha" type="matrix" values="0 0 0 0 0 0 0 0 0 0 0 0 0 0 0 0 0 0 127 0" result="hardAlpha"/>
<feMorphology radius="2" operator="dilate" in="SourceAlpha" result="effect1_dropShadow_207_70"/>
<feOffset dx="4" dy="4"/>
<feGaussianBlur stdDeviation="2"/>
<feComposite in2="hardAlpha" operator="out"/>
<feColorMatrix type="matrix" values="0 0 0 0 0.988235 0 0 0 0 0.443137 0 0 0 0 0.0784314 0 0 0 0.4 0"/>
<feBlend mode="normal" in2="BackgroundImageFix" result="effect1_dropShadow_207_70"/>
<feBlend mode="normal" in="SourceGraphic" in2="effect1_dropShadow_207_70" result="shape"/>
</filter>
<linearGradient id="paint0_linear_207_70" x1="140.557" y1="115.229" x2="113.039" y2="171.365" gradientUnits="userSpaceOnUse">
<stop offset="0.3" stop-color="#3E863D"/>
<stop offset="0.5" stop-color="#55934F"/>
<stop offset="0.8" stop-color="#5AAD45"/>
</linearGradient>
<linearGradient id="paint1_linear_207_70" x1="101.909" y1="162.146" x2="152.032" y2="125.111" gradientUnits="userSpaceOnUse">
<stop offset="0.57" stop-color="#3E863D"/>
<stop offset="0.72" stop-color="#619857"/>
<stop offset="1" stop-color="#76AC64"/>
</linearGradient>
<linearGradient id="paint2_linear_207_70" x1="106.686" y1="143.28" x2="148.131" y2="143.28" gradientUnits="userSpaceOnUse">
<stop offset="0.16" stop-color="#6BBF47"/>
<stop offset="0.38" stop-color="#79B461"/>
<stop offset="0.47" stop-color="#75AC64"/>
<stop offset="0.7" stop-color="#659E5A"/>
<stop offset="0.9" stop-color="#3E863D"/>
</linearGradient>
<clipPath id="clip0_207_70">
<rect width="200" height="122.49" fill="white" transform="translate(53 91)"/>
</clipPath>
</defs>
</svg>
