<svg width="313" height="313" viewBox="0 0 313 313" fill="none" xmlns="http://www.w3.org/2000/svg">
<g filter="url(#filter0_d_207_70)">
<rect x="2" y="2" width="301" height="301" rx="150.5" fill="#EEEEEE"/>
</g>
<path d="M68.158 125.246H96.566C104.904 125.316 110.946 127.72 114.692 132.454C118.438 137.188 119.674 143.654 118.402 151.852C117.908 155.598 116.812 159.272 115.116 162.876C113.49 166.48 111.23 169.73 108.332 172.628C104.798 176.302 101.018 178.634 96.99 179.624C92.962 180.614 88.792 181.108 84.482 181.108H71.762L67.734 201.248H53L68.158 125.246ZM80.56 137.33L74.2 169.13C74.624 169.2 75.048 169.236 75.472 169.236C75.966 169.236 76.462 169.236 76.956 169.236C83.74 169.306 89.394 168.636 93.916 167.222C98.438 165.738 101.478 160.58 103.032 151.746C104.304 144.326 103.032 140.05 99.216 138.92C95.47 137.79 90.772 137.26 85.118 137.33C84.27 137.4 83.458 137.436 82.68 137.436C81.974 137.436 81.232 137.436 80.454 137.436L80.56 137.33Z" fill="black"/>
<path d="M135.186 105H149.814L145.68 125.246H158.824C166.032 125.388 171.402 126.872 174.936 129.698C178.54 132.524 179.6 137.896 178.116 145.81L171.014 181.108H156.174L162.958 147.4C163.664 143.866 163.452 141.358 162.322 139.874C161.192 138.39 158.754 137.648 155.008 137.648L143.242 137.542L134.55 181.108H119.922L135.186 105Z" fill="black"/>
<path d="M193.824 125.246H222.232C230.57 125.316 236.612 127.72 240.358 132.454C244.104 137.188 245.34 143.654 244.068 151.852C243.574 155.598 242.478 159.272 240.782 162.876C239.156 166.48 236.896 169.73 233.998 172.628C230.464 176.302 226.684 178.634 222.656 179.624C218.628 180.614 214.458 181.108 210.148 181.108H197.428L193.4 201.248H178.666L193.824 125.246ZM206.226 137.33L199.866 169.13C200.29 169.2 200.714 169.236 201.138 169.236C201.632 169.236 202.128 169.236 202.622 169.236C209.406 169.306 215.06 168.636 219.582 167.222C224.104 165.738 227.144 160.58 228.698 151.746C229.97 144.326 228.698 140.05 224.882 138.92C221.136 137.79 216.438 137.26 210.784 137.33C209.936 137.4 209.124 137.436 208.346 137.436C207.64 137.436 206.898 137.436 206.12 137.436L206.226 137.33Z" fill="black"/>
<defs>
<filter id="filter0_d_207_70" x="0" y="0" width="313" height="313" filterUnits="userSpaceOnUse" color-interpolation-filters="sRGB">
<feFlood flood-opacity="0" result="BackgroundImageFix"/>
<feColorMatrix in="SourceAlpha" type="matrix" values="0 0 0 0 0 0 0 0 0 0 0 0 0 0 0 0 0 0 127 0" result="hardAlpha"/>
<feMorphology radius="2" operator="dilate" in="SourceAlpha" result="effect1_dropShadow_207_70"/>
<feOffset dx="4" dy="4"/>
<feGaussianBlur stdDeviation="2"/>
<feComposite in2="hardAlpha" operator="out"/>
<feColorMatrix type="matrix" values="0 0 0 0 0.988235 0 0 0 0 0.443137 0 0 0 0 0.0784314 0 0 0 0.4 0"/>
<feBlend mode="normal" in2="BackgroundImageFix" result="effect1_dropShadow_207_70"/>
<feBlend mode="normal" in="SourceGraphic" in2="effect1_dropShadow_207_70" result="shape"/>
</filter>
</defs>
</svg>
