<svg width="313" height="313" viewBox="0 0 313 313" fill="none" xmlns="http://www.w3.org/2000/svg">
<g filter="url(#filter0_d_207_70)">
<rect x="2" y="2" width="301" height="301" rx="150.5" fill="#EEEEEE"/>
</g>
<g clip-path="url(#clip0_207_70)">
<path d="M75.7933 152C75.7933 182.561 93.5539 208.972 119.308 221.488L82.478 120.578C78.1939 130.18 75.7933 140.807 75.7933 152Z" fill="#21759B"/>
<path d="M205.125 148.104C205.125 138.562 201.698 131.953 198.758 126.81C194.844 120.45 191.176 115.064 191.176 108.704C191.176 101.607 196.559 95 204.141 95C204.483 95 204.808 95.0426 205.142 95.0617C191.405 82.477 173.104 74.7933 153.003 74.7933C126.029 74.7933 102.298 88.6327 88.4927 109.595C90.3041 109.649 92.0113 109.687 93.4613 109.687C101.537 109.687 114.038 108.707 114.038 108.707C118.2 108.462 118.691 114.575 114.533 115.067C114.533 115.067 110.351 115.559 105.696 115.803L133.813 199.434L150.71 148.759L138.68 115.8C134.523 115.556 130.584 115.064 130.584 115.064C126.423 114.82 126.911 108.459 131.072 108.704C131.072 108.704 143.822 109.684 151.409 109.684C159.483 109.684 171.986 108.704 171.986 108.704C176.151 108.459 176.64 114.572 172.481 115.064C172.481 115.064 168.289 115.556 163.644 115.8L191.546 198.798L199.247 173.063C202.585 162.384 205.125 154.714 205.125 148.104Z" fill="#21759B"/>
<path d="M154.358 158.754L131.192 226.069C138.109 228.102 145.424 229.214 153.003 229.214C161.994 229.214 170.617 227.66 178.643 224.837C178.435 224.507 178.247 224.156 178.093 223.774L154.358 158.754Z" fill="#21759B"/>
<path d="M220.751 114.957C221.083 117.416 221.271 120.056 221.271 122.896C221.271 130.731 219.808 139.539 215.401 150.551L191.816 218.739C214.77 205.354 230.21 180.485 230.21 152.001C230.211 138.578 226.782 125.955 220.751 114.957Z" fill="#21759B"/>
<path d="M153.003 62C103.377 62 63 102.374 63 152C63 201.632 103.377 242.004 153.003 242.004C202.628 242.004 243.01 201.632 243.01 152C243.009 102.374 202.628 62 153.003 62ZM153.003 237.879C105.652 237.879 67.1268 199.354 67.1268 152C67.1268 104.649 105.651 66.1268 153.003 66.1268C200.352 66.1268 238.875 104.649 238.875 152C238.875 199.354 200.352 237.879 153.003 237.879Z" fill="#21759B"/>
</g>
<defs>
<filter id="filter0_d_207_70" x="0" y="0" width="313" height="313" filterUnits="userSpaceOnUse" color-interpolation-filters="sRGB">
<feFlood flood-opacity="0" result="BackgroundImageFix"/>
<feColorMatrix in="SourceAlpha" type="matrix" values="0 0 0 0 0 0 0 0 0 0 0 0 0 0 0 0 0 0 127 0" result="hardAlpha"/>
<feMorphology radius="2" operator="dilate" in="SourceAlpha" result="effect1_dropShadow_207_70"/>
<feOffset dx="4" dy="4"/>
<feGaussianBlur stdDeviation="2"/>
<feComposite in2="hardAlpha" operator="out"/>
<feColorMatrix type="matrix" values="0 0 0 0 0.988235 0 0 0 0 0.443137 0 0 0 0 0.0784314 0 0 0 0.4 0"/>
<feBlend mode="normal" in2="BackgroundImageFix" result="effect1_dropShadow_207_70"/>
<feBlend mode="normal" in="SourceGraphic" in2="effect1_dropShadow_207_70" result="shape"/>
</filter>
<clipPath id="clip0_207_70">
<rect width="180" height="180.004" fill="white" transform="translate(63 62)"/>
</clipPath>
</defs>
</svg>
